v  -1  -1  -1
v  -1  -1  1
v  -1  1  -1
v  -1  1  1
v  1  -1  -1
v  1  -1  1
v  1  1  -1
v  1  1  1

vt 0.0 0.0
vt 0.0 1.0
vt 1.0 0.0
vt 1.0 1.0

vn  0.0  0.0  1.0
vn  0.0  0.0 -1.0
vn  0.0  1.0  0.0
vn  0.0 -1.0  0.0
vn  1.0  0.0  0.0
vn -1.0  0.0  0.0
 
f  1/4/2  7/1/2  5/3/2
f  1/4/2  3/2/2  7/1/2 
f  1/3/6  4/2/6  3/1/6 
f  1/3/6  2/4/6  4/2/6 
f  3/1/3  8/4/3  7/2/3 
f  3/1/3  4/3/3  8/4/3 
f  5/4/5  7/2/5  8/1/5 
f  5/4/5  8/1/5  6/3/5 
f  1/3/4  5/4/4  6/2/4 
f  1/3/4  6/2/4  2/1/4 
f  2/3/1  6/4/1  8/2/1 
f  2/3/1  8/2/1  4/1/1 
